{"title":"W.S.H.H. iCandy:Kami(18+)(720pMKV)-desspratt-","uid":9904136,"size":165085284,"categoryP":"video","categoryS":"music_videos","magnet":"?xt=urn:btih:bae423773aa5ec3feb2a6a0d0e991d0a18a7c94f&amp;dn=W.S.H.H.+iCandy%3AKami%2818%2B%29%28720pMKV%29-desspratt-&amp;tr=udp%3A%2F%2Ftracker.openbittorrent.com%3A80&amp;tr=udp%3A%2F%2Fopen.demonii.com%3A1337&amp;tr=udp%3A%2F%2Ftracker.coppersurfer.tk%3A6969&amp;tr=udp%3A%2F%2Fexodus.desync.com%3A6969","seeders":0,"leechers":2,"uploader":"desspratt","files":1,"time":1396815014,"description":"Music: Kanye West - I'm In It\n\nDirected By: @jxnny5 \n\n\n\n[URL=https://imageshack.com/i/0vns9wj][IMG]http://imagizer.imageshack.us/v2/1024x768q90/31/ns9w.jpg[/IMG][/URL]\n[URL=https://imageshack.com/i/0s7f93j][IMG]http://imagizer.imageshack.us/v2/1024x768q90/28/7f93.jpg[/IMG][/URL]\n[URL=https://imageshack.com/i/1a9tydj][IMG]http://imagizer.imageshack.us/v2/1024x768q90/46/9tyd.jpg[/IMG][/URL]\n______________________________________________________________________________________________________________________________________________________________________________________________________\n\nFormat                                   : Matroska\nFormat version                           : Version 2\nFile size                                : 157 MiB\nDuration                                 : 2mn 45s\nOverall bit rate                         : 7 979 Kbps\nWriting application                      : Lavf51.12.1\nWriting library                          : Lavf51.12.1\n\nVideo\nID                                       : 1\nFormat                                   : AVC\nFormat/Info                              : Advanced Video Codec\nFormat profile                           : &lt;a class=&quot;__cf_email__&quot; href=&quot;/cdn-cgi/l/email-protection&quot; data-cfemail=&quot;d391b2a0b6bfbabdb6939fe7fde3&quot;&gt;[email&amp;#160;protected]&lt;/a&gt;&lt;script cf-hash='f9e31' type=&quot;text/javascript&quot;&gt;\n/* &lt;![CDATA[ */!function(){try{var t=&quot;currentScript&quot;in document?document.currentScript:function(){for(var t=document.getElementsByTagName(&quot;script&quot;),e=t.length;e--;)if(t[e].getAttribute(&quot;cf-hash&quot;))return t[e]}();if(t&amp;&amp;t.previousSibling){var e,r,n,i,c=t.previousSibling,a=c.getAttribute(&quot;data-cfemail&quot;);if(a){for(e=&quot;&quot;,r=parseInt(a.substr(0,2),16),n=2;a.length-n;n+=2)i=parseInt(a.substr(n,2),16)^r,e+=String.fromCharCode(i);e=document.createTextNode(e),c.parentNode.replaceChild(e,c)}}}catch(u){}}();/* ]]&gt; */&lt;/script&gt;\nFormat settings, CABAC                   : No\nFormat settings, ReFrames                : 2 frames\nFormat settings, GOP                     : M=1, N=12\nCodec ID                                 : V_MPEG4/ISO/AVC\nDuration                                 : 2mn 45s\nBit rate                                 : 7 693 Kbps\nWidth                                    : 1 920 pixels\nHeight                                   : 1 080 pixels\nDisplay aspect ratio                     : 16:9\nFrame rate mode                          : Constant\nFrame rate                               : 24.000 fps\nStandard                                 : NTSC\nColor space                              : YUV\nChroma subsampling                       : 4:2:0\nBit depth                                : 8 bits\nScan type                                : Progressive\nBits/(Pixel*Frame)                       : 0.155\nStream size                              : 152 MiB (96%)\nDefault                                  : Yes\nForced                                   : No\nColor primaries                          : BT.601 NTSC\nTransfer characteristics                 : BT.601\nMatrix coefficients                      : BT.601\n\nAudio\nID                                       : 2\nFormat                                   : MPEG Audio\nFormat version                           : Version 1\nFormat profile                           : Layer 3\nMode                                     : Joint stereo\nMode extension                           : MS Stereo\nCodec ID                                 : A_MPEG/L3\nCodec ID/Hint                            : MP3\nDuration                                 : 2mn 45s\nBit rate mode                            : Constant\nBit rate                                 : 128 Kbps\nChannel(s)                               : 2 channels\nSampling rate                            : 44.1 KHz\nCompression mode                         : Lossy\nStream size                              : 2.53 MiB (2%)\nDefault                                  : Yes\nForced                                   : No","torrent":{"xt":"urn:btih:bae423773aa5ec3feb2a6a0d0e991d0a18a7c94f","amp;dn":"W.S.H.H.+iCandy%3AKami%2818%2B%29%28720pMKV%29-desspratt-","amp;tr":["udp%3A%2F%2Ftracker.openbittorrent.com%3A80","udp%3A%2F%2Fopen.demonii.com%3A1337","udp%3A%2F%2Ftracker.coppersurfer.tk%3A6969","udp%3A%2F%2Fexodus.desync.com%3A6969"],"infoHash":"bae423773aa5ec3feb2a6a0d0e991d0a18a7c94f","infoHashBuffer":{"type":"Buffer","data":[186,228,35,119,58,165,236,63,235,42,106,13,14,153,29,10,24,167,201,79]},"announce":[],"urlList":[]}}